<svg width="255" height="83" viewBox="0 0 255 83" fill="none" xmlns="http://www.w3.org/2000/svg">
<path d="M10.11 0.100098H0.310059V59.3001H10.11V0.100098Z" fill="#E5E5E5"/>
<path d="M32.8098 0.100098H23.0098V59.3001H32.8098V0.100098Z" fill="#E5E5E5"/>
<path d="M10.1113 24.8011V34.6011H23.0113V24.8011H10.1113Z" fill="#E5E5E5"/>
<path d="M128.11 49.1H117.81V1.13C117.81 0.499997 118.32 0 118.94 0H128.11V49.1Z" fill="#E5E5E5"/>
<path d="M149.81 49.2H139.51V0H148.68C149.31 0 149.81 0.509997 149.81 1.13V49.2Z" fill="#E5E5E5"/>
<path d="M114.711 49.101V59.4009H152.911V49.101H114.711Z" fill="#E5E5E5"/>
<path d="M128.111 0.000854492V10.3008H139.511V0.000854492H128.111Z" fill="#E5E5E5"/>
<path d="M164.91 59.3001H154.91V0.100098H164.91V22.1701V59.3001Z" fill="#E5E5E5"/>
<path d="M164.77 22.13L174.06 0.300049H183.8L173.2 26.92L185.06 59.3H174.06L164.77 32.0201" fill="#E5E5E5"/>
<path d="M254.13 59.43H244.13V0.22998H254.13V22.3V59.43Z" fill="#E5E5E5"/>
<path d="M227.61 59.3001H217.61V0.100098H227.61V22.1701V59.3001Z" fill="#E5E5E5"/>
<path d="M217.61 0.100098V10.1001H193.31V0.100098H202.37H217.61Z" fill="#E5E5E5"/>
<path d="M217.61 49.3V59.3H193.31V49.3H202.37H217.61Z" fill="#E5E5E5"/>
<path d="M227.6 0.0998535L235.34 11.8005L244.13 0.226187V18.5061L235.86 30.0999L227.6 18.5061" fill="#E5E5E5"/>
<path d="M114.7 67.1799H103.1V70.0799H114.7V67.1799Z" fill="#E5E5E5"/>
<path d="M107.395 69.9012V82.0613H110.295V69.9012H107.395Z" fill="#E5E5E5"/>
<path d="M254.21 72.52H177.79V75.52H254.21V72.52Z" fill="#E5E5E5"/>
<path d="M158.54 67.1299H155.59V82.0299H158.54V67.1299Z" fill="#E5E5E5"/>
<path d="M167.19 67.1299H164.24V82.0299H167.19V67.1299Z" fill="#E5E5E5"/>
<path d="M165.17 63.23C165.02 64.08 164.6 64.78 163.9 65.3C163.2 65.83 162.37 66.09 161.4 66.09C160.44 66.09 159.61 65.83 158.9 65.29C158.2 64.76 157.78 64.07 157.64 63.22H159.46C159.75 64.07 160.39 64.49 161.36 64.49C162.4 64.49 163.07 64.07 163.35 63.22H165.17V63.23Z" fill="#E5E5E5"/>
<path d="M158.44 82.0601L156 80.2601L164.24 67.0801L166.68 68.8901L158.44 82.0601Z" fill="#E5E5E5"/>
<path d="M140.71 67.21V82.08H138.92C138.29 82.08 137.79 81.57 137.79 80.95V68.35C137.79 67.72 138.3 67.22 138.92 67.22H140.71V67.21Z" fill="#E5E5E5"/>
<path d="M146.46 67.2H140.62V70.1H146.46V67.2Z" fill="#E5E5E5"/>
<path d="M149.39 68.34V80.94C149.39 81.57 148.88 82.07 148.26 82.07H146.47V67.2H148.26C148.88 67.21 149.39 67.72 149.39 68.34Z" fill="#E5E5E5"/>
<path d="M146.46 79.1799H140.62V82.0799H146.46V79.1799Z" fill="#E5E5E5"/>
<path d="M120.9 67.2023V82.0723H123.8V67.2023H120.9Z" fill="#E5E5E5"/>
<path d="M129.6 67.1899H123.8V70.0899H129.6V67.1899Z" fill="#E5E5E5"/>
<path d="M132.5 68.34V75.7C132.5 76.33 131.99 76.83 131.37 76.83H129.6V67.2H131.37C131.99 67.2 132.5 67.71 132.5 68.34Z" fill="#E5E5E5"/>
<path d="M129.6 73.9299H123.8V76.8299H129.6V73.9299Z" fill="#E5E5E5"/>
<path d="M96.4698 79.1899H89.9199V82.0899H96.4698V79.1899Z" fill="#E5E5E5"/>
<path d="M87.0259 67.1979V82.0779H89.9259V67.1979H87.0259Z" fill="#E5E5E5"/>
<path d="M96.4698 67.2H89.9199V70.1H96.4698V67.2Z" fill="#E5E5E5"/>
<path d="M76.42 72.52H0V75.52H76.42V72.52Z" fill="#E5E5E5"/>
<path d="M48.01 59.3H40.1901C39.0901 59.3 38.21 58.41 38.21 57.32V2.23C38.21 1.13 39.1001 0.25 40.1901 0.25H48.01V59.3Z" fill="#E5E5E5"/>
<path d="M73.3297 59.3H65.5098V0.25H73.3297C74.4297 0.25 75.3098 1.14 75.3098 2.23V57.31C75.3098 58.41 74.4197 59.3 73.3297 59.3Z" fill="#E5E5E5"/>
<path d="M48.0112 0.250977V10.051L65.5112 10.051V0.250977L48.0112 0.250977Z" fill="#E5E5E5"/>
<path d="M48.0127 49.5193V59.2993H65.5127V49.5193H48.0127Z" fill="#E5E5E5"/>
<path d="M89.4102 0H79.4102V59.3H89.4102V0Z" fill="#E5E5E5"/>
<path d="M113.31 1.98V9.8H89.4102V0H111.33C112.42 0 113.31 0.890003 113.31 1.98Z" fill="#E5E5E5"/>
<path d="M113.31 26.23V34.05C113.31 35.15 112.42 36.03 111.33 36.03H89.4102V26.23H113.31Z" fill="#E5E5E5"/>
<path d="M113.31 9.80005H103.51V26.23H113.31V9.80005Z" fill="#E5E5E5"/>
<path d="M190.01 28.2H184.01V33.5H190.01V28.2Z" fill="#E5E5E5"/>
<path d="M215.01 28.2H209.01V33.5H215.01V28.2Z" fill="#E5E5E5"/>
<path d="M194.413 16.8555L188.572 21.5276L192.045 25.8694L197.886 21.1973L194.413 16.8555Z" fill="#E5E5E5"/>
<path d="M206.995 36.4435L201.154 41.1155L204.627 45.4573L210.468 40.7853L206.995 36.4435Z" fill="#E5E5E5"/>
<path d="M197.947 40.9175L191.853 36.5798L188.628 41.1096L194.722 45.4473L197.947 40.9175Z" fill="#E5E5E5"/>
<path d="M210.038 20.7717L203.944 16.4341L200.72 20.9638L206.814 25.3015L210.038 20.7717Z" fill="#E5E5E5"/>
<path d="M199.56 40.8599C204.647 40.8599 208.77 36.7365 208.77 31.6499C208.77 26.5634 204.647 22.4399 199.56 22.4399C194.474 22.4399 190.35 26.5634 190.35 31.6499C190.35 36.7365 194.474 40.8599 199.56 40.8599Z" stroke="#E5E5E5" stroke-width="6" stroke-miterlimit="10"/>
</svg>
